<svg width="201" height="62" viewBox="0 0 201 62" fill="none" xmlns="http://www.w3.org/2000/svg">
<rect y="31" width="18" height="24" fill="#0047FF"/>
<rect x="22" y="19" width="18" height="36" fill="#0047FF"/>
<rect x="44" y="7" width="18" height="48" fill="#0047FF"/>
<path d="M85.8032 19.3369C85.8032 18.6452 85.5591 18.1162 85.0708 17.75C84.5825 17.3757 83.7036 16.985 82.4341 16.5781C81.1646 16.1631 80.1595 15.7562 79.4189 15.3574C77.4007 14.2669 76.3916 12.798 76.3916 10.9507C76.3916 9.9904 76.6602 9.1359 77.1973 8.38721C77.7425 7.63037 78.5197 7.04036 79.5288 6.61719C80.5461 6.19401 81.6854 5.98242 82.9468 5.98242C84.2163 5.98242 85.3475 6.21436 86.3403 6.67822C87.3332 7.13395 88.1022 7.78092 88.6475 8.61914C89.2008 9.45736 89.4775 10.4095 89.4775 11.4756H85.8154C85.8154 10.6618 85.5591 10.0311 85.0464 9.5835C84.5337 9.12777 83.8135 8.8999 82.8857 8.8999C81.9906 8.8999 81.2948 9.09115 80.7983 9.47363C80.3019 9.84798 80.0537 10.3444 80.0537 10.9629C80.0537 11.5407 80.3426 12.0249 80.9204 12.4155C81.5063 12.8062 82.3649 13.1724 83.4961 13.5142C85.5794 14.1408 87.0972 14.918 88.0493 15.8457C89.0015 16.7734 89.4775 17.929 89.4775 19.3125C89.4775 20.8506 88.8957 22.0591 87.7319 22.938C86.5682 23.8088 85.0016 24.2441 83.0322 24.2441C81.665 24.2441 80.4199 23.9959 79.2969 23.4995C78.1738 22.995 77.3153 22.3073 76.7212 21.4365C76.1353 20.5658 75.8423 19.5566 75.8423 18.4092H79.5166C79.5166 20.3704 80.6885 21.3511 83.0322 21.3511C83.903 21.3511 84.5825 21.1761 85.0708 20.8262C85.5591 20.4681 85.8032 19.9717 85.8032 19.3369ZM92.6865 17.2739C92.6865 15.9637 92.9388 14.7959 93.4434 13.7705C93.9479 12.7451 94.6722 11.9517 95.6162 11.3901C96.5684 10.8286 97.6711 10.5479 98.9243 10.5479C100.707 10.5479 102.159 11.0931 103.282 12.1836C104.413 13.2741 105.044 14.7552 105.174 16.627L105.199 17.5303C105.199 19.5566 104.633 21.1842 103.502 22.4131C102.371 23.6338 100.853 24.2441 98.9487 24.2441C97.0444 24.2441 95.5226 23.6338 94.3833 22.4131C93.2521 21.1924 92.6865 19.5322 92.6865 17.4326V17.2739ZM96.2144 17.5303C96.2144 18.7835 96.4504 19.7438 96.9224 20.4111C97.3944 21.0703 98.0698 21.3999 98.9487 21.3999C99.8032 21.3999 100.471 21.0744 100.951 20.4233C101.431 19.7642 101.671 18.7144 101.671 17.2739C101.671 16.0451 101.431 15.0929 100.951 14.4175C100.471 13.742 99.7951 13.4043 98.9243 13.4043C98.0617 13.4043 97.3944 13.742 96.9224 14.4175C96.4504 15.0848 96.2144 16.1224 96.2144 17.5303ZM116.293 14.1001C115.813 14.035 115.39 14.0024 115.024 14.0024C113.689 14.0024 112.814 14.4541 112.399 15.3574V24H108.872V10.792H112.204L112.302 12.3667C113.01 11.1541 113.99 10.5479 115.244 10.5479C115.634 10.5479 116 10.6007 116.342 10.7065L116.293 14.1001ZM124.336 7.54492V10.792H126.595V13.3799H124.336V19.9717C124.336 20.46 124.43 20.8099 124.617 21.0215C124.804 21.2331 125.162 21.3389 125.691 21.3389C126.082 21.3389 126.428 21.3104 126.729 21.2534V23.9268C126.037 24.1383 125.325 24.2441 124.593 24.2441C122.119 24.2441 120.857 22.995 120.809 20.4966V13.3799H118.88V10.792H120.809V7.54492H124.336ZM133.783 24H130.243V10.792H133.783V24ZM130.036 7.37402C130.036 6.84505 130.211 6.40967 130.561 6.06787C130.919 5.72607 131.403 5.55518 132.013 5.55518C132.615 5.55518 133.096 5.72607 133.454 6.06787C133.812 6.40967 133.991 6.84505 133.991 7.37402C133.991 7.91113 133.808 8.35059 133.441 8.69238C133.083 9.03418 132.607 9.20508 132.013 9.20508C131.419 9.20508 130.939 9.03418 130.573 8.69238C130.215 8.35059 130.036 7.91113 130.036 7.37402ZM141.448 10.792L141.558 12.3179C142.502 11.1379 143.767 10.5479 145.354 10.5479C146.754 10.5479 147.795 10.9588 148.479 11.7808C149.163 12.6027 149.513 13.8315 149.529 15.4673V24H146.001V15.5527C146.001 14.804 145.838 14.2629 145.513 13.9292C145.187 13.5874 144.646 13.4165 143.889 13.4165C142.896 13.4165 142.152 13.8397 141.655 14.686V24H138.127V10.792H141.448ZM153.202 17.2983C153.202 15.272 153.682 13.6403 154.642 12.4033C155.611 11.1663 156.913 10.5479 158.548 10.5479C159.997 10.5479 161.124 11.0443 161.93 12.0371L162.076 10.792H165.274V23.5605C165.274 24.7161 165.01 25.7212 164.481 26.5757C163.96 27.4302 163.224 28.0812 162.271 28.5288C161.319 28.9764 160.204 29.2002 158.927 29.2002C157.958 29.2002 157.014 29.0049 156.095 28.6143C155.175 28.2318 154.479 27.7354 154.007 27.125L155.57 24.9766C156.449 25.9613 157.515 26.4536 158.768 26.4536C159.704 26.4536 160.432 26.2013 160.953 25.6968C161.474 25.2004 161.734 24.4924 161.734 23.5728V22.8647C160.921 23.7843 159.85 24.2441 158.524 24.2441C156.937 24.2441 155.651 23.6257 154.667 22.3887C153.69 21.1436 153.202 19.4956 153.202 17.4448V17.2983ZM156.729 17.5547C156.729 18.751 156.97 19.6909 157.45 20.3745C157.93 21.05 158.589 21.3877 159.427 21.3877C160.501 21.3877 161.271 20.9849 161.734 20.1792V14.625C161.262 13.8193 160.501 13.4165 159.452 13.4165C158.605 13.4165 157.938 13.7624 157.45 14.4541C156.97 15.1458 156.729 16.1794 156.729 17.5547ZM83.1543 50.5933L87.1826 37.2266H91.2598L85.0708 55H81.25L75.0854 37.2266H79.1504L83.1543 50.5933ZM97.9355 55H94.3955V41.792H97.9355V55ZM94.188 38.374C94.188 37.8451 94.363 37.4097 94.7129 37.0679C95.071 36.7261 95.5552 36.5552 96.1655 36.5552C96.7677 36.5552 97.2479 36.7261 97.606 37.0679C97.964 37.4097 98.1431 37.8451 98.1431 38.374C98.1431 38.9111 97.96 39.3506 97.5938 39.6924C97.2357 40.0342 96.7596 40.2051 96.1655 40.2051C95.5715 40.2051 95.0913 40.0342 94.7251 39.6924C94.367 39.3506 94.188 38.9111 94.188 38.374ZM109.506 51.3501C109.506 50.9188 109.291 50.5811 108.859 50.3369C108.436 50.0846 107.753 49.8608 106.809 49.6655C103.667 49.0063 102.097 47.6717 102.097 45.6616C102.097 44.4897 102.581 43.5132 103.549 42.7319C104.526 41.9425 105.799 41.5479 107.37 41.5479C109.047 41.5479 110.385 41.9425 111.386 42.7319C112.395 43.5213 112.9 44.5467 112.9 45.8081H109.372C109.372 45.3035 109.209 44.8885 108.884 44.563C108.558 44.2293 108.05 44.0625 107.358 44.0625C106.764 44.0625 106.304 44.1968 105.979 44.4653C105.653 44.7339 105.49 45.0757 105.49 45.4907C105.49 45.8813 105.673 46.1987 106.04 46.4429C106.414 46.6789 107.041 46.8864 107.919 47.0654C108.798 47.2363 109.539 47.4316 110.141 47.6514C112.005 48.335 112.937 49.519 112.937 51.2036C112.937 52.408 112.42 53.3846 111.386 54.1333C110.353 54.8739 109.018 55.2441 107.382 55.2441C106.276 55.2441 105.291 55.0488 104.428 54.6582C103.574 54.2594 102.902 53.7183 102.414 53.0347C101.926 52.3429 101.682 51.5983 101.682 50.8008H105.026C105.059 51.4274 105.291 51.9076 105.722 52.2412C106.153 52.5749 106.731 52.7417 107.456 52.7417C108.131 52.7417 108.64 52.6156 108.981 52.3633C109.331 52.1029 109.506 51.7651 109.506 51.3501ZM124.629 53.6572C123.759 54.7152 122.554 55.2441 121.016 55.2441C119.6 55.2441 118.518 54.8372 117.769 54.0234C117.028 53.2096 116.65 52.0174 116.634 50.4468V41.792H120.162V50.3247C120.162 51.7 120.788 52.3877 122.042 52.3877C123.238 52.3877 124.06 51.9727 124.507 51.1426V41.792H128.047V55H124.727L124.629 53.6572ZM139.862 55C139.7 54.6826 139.582 54.2879 139.508 53.8159C138.654 54.7681 137.543 55.2441 136.176 55.2441C134.882 55.2441 133.808 54.8698 132.953 54.1211C132.107 53.3724 131.684 52.4284 131.684 51.2891C131.684 49.8893 132.2 48.8151 133.234 48.0664C134.276 47.3177 135.777 46.9393 137.738 46.9312H139.362V46.1743C139.362 45.564 139.203 45.0757 138.886 44.7095C138.576 44.3433 138.084 44.1602 137.409 44.1602C136.815 44.1602 136.347 44.3026 136.005 44.5874C135.671 44.8722 135.504 45.2629 135.504 45.7593H131.977C131.977 44.9943 132.213 44.2863 132.685 43.6353C133.157 42.9842 133.824 42.4756 134.687 42.1094C135.549 41.735 136.518 41.5479 137.592 41.5479C139.219 41.5479 140.509 41.9588 141.461 42.7808C142.422 43.5946 142.902 44.742 142.902 46.2231V51.9482C142.91 53.2015 143.085 54.1496 143.427 54.7925V55H139.862ZM136.945 52.5464C137.466 52.5464 137.946 52.4325 138.385 52.2046C138.825 51.9686 139.15 51.6553 139.362 51.2646V48.9941H138.043C136.278 48.9941 135.338 49.6045 135.224 50.8252L135.211 51.0327C135.211 51.4722 135.366 51.8343 135.675 52.1191C135.985 52.404 136.408 52.5464 136.945 52.5464ZM150.835 55H147.295V36.25H150.835V55ZM158.976 55H155.436V41.792H158.976V55ZM155.228 38.374C155.228 37.8451 155.403 37.4097 155.753 37.0679C156.111 36.7261 156.595 36.5552 157.206 36.5552C157.808 36.5552 158.288 36.7261 158.646 37.0679C159.004 37.4097 159.183 37.8451 159.183 38.374C159.183 38.9111 159 39.3506 158.634 39.6924C158.276 40.0342 157.8 40.2051 157.206 40.2051C156.611 40.2051 156.131 40.0342 155.765 39.6924C155.407 39.3506 155.228 38.9111 155.228 38.374ZM167.446 52.1558H173.903V55H162.941V52.8516L169.155 44.6484H163.125V41.792H173.708V43.8794L167.446 52.1558ZM183.497 55.2441C181.56 55.2441 179.981 54.6501 178.76 53.4619C177.548 52.2738 176.941 50.6909 176.941 48.7134V48.3716C176.941 47.0451 177.198 45.861 177.71 44.8193C178.223 43.7695 178.947 42.9639 179.883 42.4023C180.827 41.8327 181.902 41.5479 183.106 41.5479C184.913 41.5479 186.333 42.1175 187.366 43.2568C188.408 44.3962 188.929 46.0116 188.929 48.103V49.5435H180.518C180.632 50.4061 180.974 51.0978 181.543 51.6187C182.121 52.1395 182.85 52.3999 183.729 52.3999C185.088 52.3999 186.15 51.9076 186.915 50.9229L188.648 52.8638C188.119 53.6125 187.403 54.1984 186.5 54.6216C185.596 55.0366 184.595 55.2441 183.497 55.2441ZM183.094 44.4043C182.394 44.4043 181.824 44.6403 181.385 45.1123C180.953 45.5843 180.677 46.2598 180.555 47.1387H185.462V46.8579C185.446 46.0767 185.234 45.4744 184.827 45.0513C184.42 44.62 183.842 44.4043 183.094 44.4043ZM199.865 45.1001C199.385 45.035 198.961 45.0024 198.595 45.0024C197.261 45.0024 196.386 45.4541 195.971 46.3574V55H192.443V41.792H195.775L195.873 43.3667C196.581 42.1541 197.562 41.5479 198.815 41.5479C199.206 41.5479 199.572 41.6007 199.914 41.7065L199.865 45.1001Z" fill="black"/>
</svg>
